<?xml version="1.0" encoding="utf-8"?>
<!-- Generator: Adobe Illustrator 16.0.0, SVG Export Plug-In . SVG Version: 6.00 Build 0)  -->
<!DOCTYPE svg PUBLIC "-//W3C//DTD SVG 1.1//EN" "http://www.w3.org/Graphics/SVG/1.1/DTD/svg11.dtd">
<svg version="1.1" id="Calque_1" xmlns="http://www.w3.org/2000/svg" xmlns:xlink="http://www.w3.org/1999/xlink" x="0px" y="0px"
	 width="108.275px" height="49.813px" viewBox="0 0 108.275 49.813" enable-background="new 0 0 108.275 49.813"
	 xml:space="preserve">
<g>
	<g>
		<path fill="#FFFFFF" d="M65.224,38.217c0,0.547-0.189,0.977-0.566,1.289s-0.901,0.47-1.57,0.47c-0.263,0-0.516-0.025-0.759-0.08
			c-0.243-0.054-0.482-0.134-0.719-0.241v-0.963c0.219,0.146,0.458,0.255,0.715,0.333c0.257,0.077,0.517,0.116,0.779,0.116
			c0.358,0,0.639-0.072,0.839-0.217c0.201-0.146,0.301-0.346,0.301-0.604c0-0.197-0.068-0.379-0.205-0.542
			c-0.137-0.162-0.438-0.37-0.904-0.622c-0.305-0.166-0.528-0.299-0.67-0.396c-0.142-0.1-0.264-0.202-0.365-0.31
			c-0.155-0.155-0.271-0.328-0.346-0.52c-0.074-0.188-0.111-0.396-0.111-0.622c0-0.503,0.177-0.902,0.529-1.196
			c0.354-0.295,0.83-0.441,1.431-0.441c0.247,0,0.481,0.024,0.707,0.076c0.225,0.052,0.431,0.125,0.617,0.222v1.012
			c-0.154-0.14-0.356-0.249-0.605-0.329c-0.249-0.081-0.504-0.121-0.767-0.121c-0.301,0-0.53,0.062-0.691,0.182
			c-0.161,0.121-0.241,0.291-0.241,0.511c0,0.188,0.065,0.357,0.197,0.51c0.131,0.152,0.421,0.348,0.871,0.582
			c0.315,0.166,0.547,0.3,0.694,0.401c0.147,0.103,0.271,0.206,0.374,0.313c0.161,0.166,0.278,0.348,0.354,0.542
			C65.187,37.766,65.224,37.981,65.224,38.217z"/>
		<path fill="#FFFFFF" d="M69.039,39.542c-0.204,0.145-0.415,0.253-0.634,0.325c-0.22,0.071-0.447,0.107-0.683,0.107
			c-0.424,0-0.745-0.117-0.965-0.353c-0.22-0.236-0.329-0.584-0.329-1.045V35.51h0.899v2.771c0,0.327,0.048,0.558,0.146,0.69
			c0.096,0.135,0.26,0.201,0.489,0.201c0.204,0,0.417-0.043,0.64-0.129c0.222-0.085,0.376-0.188,0.462-0.306v-3.229h0.898v4.377
			h-0.898v-0.321L69.039,39.542z"/>
		<path fill="#FFFFFF" d="M72.485,33.855c0,0.177-0.062,0.326-0.181,0.446c-0.12,0.12-0.27,0.181-0.445,0.181
			c-0.177,0-0.326-0.061-0.446-0.181c-0.121-0.12-0.181-0.271-0.181-0.446s0.06-0.325,0.181-0.444c0.12-0.12,0.27-0.182,0.446-0.182
			c0.176,0,0.325,0.062,0.445,0.182C72.424,33.53,72.485,33.679,72.485,33.855z M72.308,35.511v4.377h-0.9v-4.377H72.308z"/>
		<path fill="#FFFFFF" d="M77.143,35.511l-1.566,4.377h-0.898l-1.566-4.377H74.1l0.851,2.706c0.054,0.166,0.094,0.303,0.121,0.41
			c0.027,0.106,0.043,0.188,0.048,0.24h0.024c0.005-0.054,0.022-0.136,0.052-0.244c0.029-0.11,0.068-0.245,0.116-0.406l0.844-2.706
			H77.143z"/>
		<path fill="#FFFFFF" d="M81.126,39.728c-0.225,0.085-0.443,0.148-0.659,0.188c-0.214,0.04-0.428,0.06-0.643,0.06
			c-0.69,0-1.229-0.196-1.618-0.59c-0.388-0.394-0.583-0.946-0.583-1.658c0-0.702,0.183-1.262,0.546-1.679
			c0.364-0.418,0.856-0.627,1.479-0.627c0.53,0,0.938,0.159,1.229,0.479c0.289,0.318,0.435,0.763,0.435,1.329
			c0,0.128-0.009,0.263-0.024,0.401s-0.04,0.278-0.072,0.418H78.5c0.055,0.38,0.19,0.664,0.41,0.851
			c0.22,0.188,0.527,0.281,0.924,0.281c0.198,0,0.406-0.021,0.623-0.068c0.217-0.045,0.44-0.112,0.67-0.203L81.126,39.728
			L81.126,39.728z M80.492,37.061c0.005-0.277-0.074-0.502-0.237-0.671c-0.163-0.168-0.389-0.253-0.678-0.253
			c-0.315,0-0.568,0.104-0.755,0.313c-0.188,0.209-0.294,0.506-0.321,0.892h1.969c0.005-0.043,0.011-0.09,0.016-0.141
			C80.49,37.15,80.492,37.104,80.492,37.061z"/>
		<path fill="#FFFFFF" d="M85.392,39.093v0.795h-3.197v-0.812l2.08-2.746l-0.024-0.024h-1.968v-0.795h3.021v0.811l-2.072,2.747
			l0.023,0.024H85.392z"/>
		<path fill="#FFFFFF" d="M90.283,33.534v6.354h-0.9v-6.354H90.283z"/>
		<path fill="#FFFFFF" d="M94.909,39.728c-0.225,0.085-0.444,0.148-0.659,0.188c-0.214,0.04-0.428,0.06-0.643,0.06
			c-0.69,0-1.23-0.196-1.618-0.59s-0.583-0.946-0.583-1.658c0-0.702,0.182-1.262,0.546-1.679c0.364-0.418,0.856-0.627,1.479-0.627
			c0.529,0,0.938,0.159,1.229,0.479c0.289,0.318,0.434,0.763,0.434,1.329c0,0.128-0.008,0.263-0.023,0.401s-0.04,0.278-0.072,0.418
			h-2.715c0.054,0.38,0.19,0.664,0.41,0.851c0.22,0.188,0.527,0.281,0.924,0.281c0.198,0,0.406-0.021,0.623-0.068
			c0.217-0.045,0.44-0.112,0.67-0.203V39.728z M94.274,37.061c0.005-0.277-0.074-0.502-0.237-0.671
			c-0.163-0.168-0.389-0.253-0.678-0.253c-0.316,0-0.568,0.104-0.755,0.313c-0.188,0.209-0.294,0.506-0.321,0.892h1.968
			c0.005-0.043,0.012-0.09,0.017-0.141C94.272,37.15,94.274,37.104,94.274,37.061z"/>
		<path fill="#FFFFFF" d="M100.242,36.273v3.614h-0.899v-3.614h-0.658V35.51h0.658c0.021-0.724,0.166-1.246,0.435-1.57
			c0.268-0.324,0.675-0.485,1.221-0.485c0.14,0,0.277,0.011,0.414,0.031c0.137,0.021,0.277,0.058,0.422,0.104v0.835
			c-0.086-0.059-0.19-0.104-0.316-0.136c-0.126-0.032-0.265-0.05-0.414-0.05c-0.327,0-0.552,0.082-0.675,0.245
			s-0.186,0.505-0.186,1.024h1.165v0.763L100.242,36.273L100.242,36.273z M103.471,33.855c0,0.177-0.062,0.326-0.182,0.446
			s-0.269,0.181-0.444,0.181c-0.178,0-0.326-0.061-0.446-0.181c-0.121-0.12-0.182-0.271-0.182-0.446s0.062-0.325,0.182-0.444
			c0.12-0.12,0.269-0.182,0.446-0.182c0.176,0,0.324,0.062,0.444,0.182C103.41,33.53,103.471,33.679,103.471,33.855z
			 M103.294,35.511v4.377h-0.899v-4.377H103.294z"/>
		<path fill="#FFFFFF" d="M105.639,33.534v6.354h-0.9v-6.354H105.639z"/>
	</g>
	<g enable-background="new    ">
		<path fill="#FFFFFF" d="M27.945,12.452h-3.95c-3.99,0-7.05,0.79-9.181,2.368c-2.13,1.57-3.199,3.82-3.199,6.73
			c0,2.6,0.8,4.7,2.399,6.29c1.59,1.6,3.72,2.39,6.391,2.39c1.63,0,3.17-0.29,4.6-0.88c1.44-0.59,2.61-1.37,3.511-2.34l0.159,0.05
			l0.881,2.602h4.22V12.352c0-3.92-0.949-6.83-2.84-8.74c-1.891-1.908-4.859-2.858-8.92-2.858c-6.24,0-11.189,1.898-14.87,5.688
			c-3.67,3.802-5.511,8.75-5.511,14.852c0,5.96,1.812,10.818,5.431,14.56c3.631,3.74,8.45,5.62,14.49,5.62
			c2.279,0,4.489-0.29,6.63-0.86c2.13-0.568,3.989-1.38,5.59-2.42v-0.01l-0.561-5.05c-0.3,0.11-0.609,0.24-0.92,0.38
			c-0.01,0.01-0.021,0.021-0.04,0.021c-0.3,0.18-0.609,0.34-0.909,0.488c0,0.012-0.011,0.012-0.021,0.021
			c-1.33,0.688-2.61,1.22-3.851,1.6c-1.801,0.562-3.67,0.83-5.609,0.83c-4.61,0-8.24-1.43-10.9-4.29
			c-2.649-2.86-3.97-6.63-3.97-11.31c0-4.57,1.3-8.2,3.899-10.892c2.601-2.688,6.149-4.028,10.66-4.028
			c2.351,0,4.021,0.42,4.989,1.25c0.97,0.83,1.45,2.29,1.45,4.368v0.54C27.995,12.231,27.984,12.352,27.945,12.452z M28.415,16.771
			v5.66c-0.49,0.8-1.34,1.49-2.55,2.08s-2.49,0.89-3.851,0.89c-1.45,0-2.569-0.369-3.351-1.119c-0.78-0.739-1.17-1.811-1.17-3.199
			c0-1.521,0.58-2.62,1.739-3.301c1.16-0.681,2.961-1.011,5.381-1.011H28.415z"/>
		<path fill="#FFFFFF" d="M49.104,14.021c-0.159,0-0.319-0.01-0.489-0.01c-0.9,0-1.721,0.19-2.46,0.58
			c-0.75,0.38-1.381,0.93-1.91,1.64l-0.11-0.08v-1.83h-3.149v15.342h3.149V19.531c0.381-0.641,0.98-1.141,1.82-1.511
			c0.83-0.358,1.83-0.55,3-0.55h0.33c0.1,0,0.189,0.01,0.29,0.03V14.07C49.415,14.052,49.264,14.031,49.104,14.021z"/>
		<path fill="#FFFFFF" d="M52.945,14.321v15.342h3.159V14.321H52.945z M56.084,6.962c-0.42-0.42-0.939-0.63-1.561-0.63
			c-0.619,0-1.141,0.21-1.561,0.63c-0.43,0.42-0.64,0.938-0.64,1.56s0.21,1.142,0.64,1.562c0.42,0.43,0.94,0.64,1.561,0.64
			s1.141-0.21,1.561-0.64c0.42-0.42,0.641-0.94,0.641-1.562S56.504,7.382,56.084,6.962z"/>
		<path fill="#FFFFFF" d="M70.995,15.472c-0.891-0.97-2.34-1.46-4.37-1.46c-0.43,0-0.87,0.021-1.319,0.06
			c-0.45,0.03-0.891,0.102-1.32,0.19c-0.51,0.1-0.97,0.21-1.399,0.33c-0.42,0.12-0.79,0.26-1.109,0.41v2.898
			c0.79-0.38,1.55-0.648,2.271-0.818c0.72-0.17,1.47-0.25,2.239-0.25c1.181,0,2.011,0.21,2.49,0.64c0.479,0.44,0.71,1.2,0.71,2.28
			v0.398c0,0.07,0,0.142-0.021,0.19h-2.141c-2.159,0-3.819,0.43-4.97,1.29c-1.16,0.85-1.729,2.06-1.729,3.64
			c0,1.41,0.43,2.54,1.29,3.41c0.869,0.86,2.021,1.29,3.46,1.29c0.89,0,1.72-0.16,2.5-0.479c0.779-0.312,1.409-0.74,1.899-1.262
			l0.08,0.03l0.479,1.4h2.279v-9.48C72.314,18.021,71.875,16.452,70.995,15.472z M69.415,25.752c-0.26,0.43-0.729,0.81-1.391,1.13
			c-0.67,0.31-1.369,0.47-2.101,0.47c-0.79,0-1.39-0.188-1.8-0.59c-0.42-0.39-0.62-0.96-0.62-1.71c0-0.83,0.311-1.43,0.94-1.81
			c0.63-0.37,1.6-0.562,2.92-0.562h2.05L69.415,25.752L69.415,25.752z"/>
		<path fill="#FFFFFF" d="M88.334,15.252c-0.771-0.83-1.899-1.24-3.38-1.24c-0.83,0-1.62,0.13-2.391,0.38s-1.51,0.63-2.229,1.142
			l-0.08-0.08v-1.132h-3.149v15.342h3.149V18.352c0.32-0.42,0.86-0.77,1.62-1.068c0.76-0.302,1.5-0.45,2.229-0.45
			c0.811,0,1.38,0.229,1.721,0.7c0.34,0.47,0.51,1.278,0.51,2.42v9.71h3.149v-10.75C89.484,17.302,89.104,16.082,88.334,15.252z"/>
		<path fill="#FFFFFF" d="M104.825,15.691c-1.011-1.12-2.45-1.68-4.301-1.68c-2.18,0-3.909,0.73-5.18,2.2
			c-1.28,1.46-1.921,3.42-1.921,5.88c0,2.5,0.681,4.43,2.04,5.81c1.36,1.381,3.25,2.07,5.681,2.07c0.75,0,1.5-0.07,2.25-0.21
			s1.521-0.36,2.311-0.66v-2.87c-0.811,0.32-1.601,0.562-2.351,0.722c-0.771,0.158-1.489,0.229-2.189,0.229
			c-1.391,0-2.46-0.32-3.229-0.979c-0.771-0.66-1.25-1.65-1.439-2.98h9.521c0.109-0.49,0.189-0.979,0.25-1.47
			c0.05-0.49,0.08-0.95,0.08-1.41C106.344,18.361,105.844,16.802,104.825,15.691z M103.445,20.252c-0.021,0.17-0.03,0.34-0.051,0.49
			h-6.899c0.09-1.352,0.47-2.392,1.13-3.132c0.649-0.729,1.54-1.09,2.641-1.09c1.021,0,1.811,0.29,2.38,0.88
			c0.569,0.592,0.851,1.381,0.83,2.352C103.474,19.901,103.464,20.071,103.445,20.252z"/>
	</g>
	<path fill="#FFFFFF" d="M59.464,42.162c-2.59,4.02-8.659,8.488-13.77,6.34c-2.391-1.01-4.16-2.41-5.312-4.79
		c-1.38-2.83-2.29-7.82-6.29-5.681c-0.109,0.061-0.21,0.109-0.319,0.149c-2.5,0.96-4.579-2.59-2.449-4.14
		c0.01-0.011,0.021-0.011,0.021-0.021c0.101-0.06,0.189-0.12,0.3-0.18c0.21-0.11,0.41-0.21,0.609-0.311
		c0.021,0,0.03-0.011,0.04-0.021c0.311-0.14,0.62-0.271,0.92-0.38c3.601-1.38,7.051-0.72,9.07,3.26c0.989,1.95,2.22,6.86,4.689,7.43
		c3.369,0.771,6.54-1.368,8.311-4.108C56.964,37.092,61.165,39.521,59.464,42.162z"/>
</g>
</svg>
